<?xml version="1.0" encoding="utf-8"?>
<!-- Generator: Adobe Illustrator 20.0.0, SVG Export Plug-In . SVG Version: 6.00 Build 0)  -->
<svg version="1.1" id="Слой_1" xmlns="http://www.w3.org/2000/svg" xmlns:xlink="http://www.w3.org/1999/xlink" x="0px" y="0px"
	 viewBox="0 0 5000 3500" style="enable-background:new 0 0 5000 3500;" xml:space="preserve">
<style type="text/css">
	.st0{fill:#D0F0E4;}
	.st1{fill:#FFFFFF;stroke:#66B0F0;stroke-width:6;stroke-miterlimit:10;}
	.st2{fill:#66B0F0;}
	.st3{fill:#66B0F0;stroke:#66B0F0;stroke-width:6;stroke-miterlimit:10;}
	.st4{fill:none;stroke:#66B0F0;stroke-width:6;stroke-miterlimit:10;}
	.st5{fill:#FFCF2D;}
	.st6{fill:#FFFFFF;}
	.st7{fill:#FFFFFF;stroke:#66B0F0;stroke-width:4;stroke-miterlimit:10;}
	.st8{fill:none;stroke:#66B0F0;stroke-width:4;stroke-linecap:round;stroke-miterlimit:10;}
	.st9{fill:#E57281;}
	.st10{fill:#9A3B82;}
	.st11{fill:#3FB1B5;}
	.st12{fill:#E6E6E6;}
	.st13{fill:none;stroke:#FFFFFF;stroke-width:6;stroke-linecap:round;stroke-miterlimit:10;}
	.st14{fill:none;stroke:#FFFFFF;stroke-width:6;stroke-miterlimit:10;}
	.st15{fill:#FFFFFF;stroke:#FFCF2D;stroke-width:6;stroke-miterlimit:10;}
	.st16{fill:none;stroke:#FFCF2D;stroke-width:6;stroke-linecap:round;stroke-miterlimit:10;}
	.st17{fill:#FFFFFF;stroke:#FE5244;stroke-width:6;stroke-miterlimit:10;}
	.st18{fill:none;stroke:#FE5244;stroke-width:6;stroke-miterlimit:10;}
	.st19{fill:#FFCF2D;stroke:#FE5244;stroke-width:6;stroke-linejoin:round;stroke-miterlimit:10;}
	.st20{fill:none;stroke:#9A3B82;stroke-width:5;stroke-linecap:round;stroke-miterlimit:10;}
	.st21{fill:#FE5244;}
	.st22{fill:#FFFFFF;stroke:#3FB1B5;stroke-width:5;stroke-miterlimit:10;}
	.st23{fill:none;stroke:#3FB1B5;stroke-width:5;stroke-miterlimit:10;}
	.st24{fill:#A0505A;}
	.st25{fill:#73325A;}
	.st26{fill:#FFFFFF;stroke:#FFCF2D;stroke-width:6;stroke-linecap:round;stroke-miterlimit:10;}
	.st27{fill:none;stroke:#73325A;stroke-width:5;stroke-linecap:round;stroke-miterlimit:10;}
</style>
<polygon id="FLOOR" class="st0" points="4331,2967.4 669.1,2967.4 1326.4,2579.2 3683.7,2579.2 "/>
<g id="LAPTOP">
	<g>
		<path class="st1" d="M2876.4,795.2h-924.6V260.6c0-36.2,29.3-65.5,65.5-65.5h793.5c36.2,0,65.5,29.3,65.5,65.5V795.2z"/>
		<path class="st2" d="M2806.6,760.4h-781.2c-20.6,0-37.3-16.7-37.3-37.3V264.8c0-20.6,16.7-37.3,37.3-37.3h781.2
			c20.6,0,37.3,16.7,37.3,37.3v458.4C2843.9,743.8,2827.1,760.4,2806.6,760.4z"/>
		<path class="st3" d="M3038.4,920.7c35.4,23,27.1,68.1-14.7,68.1H1764.2c-35.2,0-47.3-47.6-12.8-69.4L3038.4,920.7z"/>
		<path class="st1" d="M3023.8,957.4H1764.2c-22.5,0-31.4-26.5-12.8-38L1952,795.2h921.7l164.5,125.5
			C3054.8,933.2,3045.2,957.4,3023.8,957.4z"/>
		<g>
			<path class="st1" d="M2878.4,920h-968.9c-17.3,0-24.1-20.4-9.9-29.2l139.3-95.6h724l126.6,96.5
				C2902.3,901.4,2894.9,920,2878.4,920z"/>
			<g>
				<line class="st4" x1="2700.3" y1="795.2" x2="2827" y2="920"/>
				<line class="st4" x1="2633.1" y1="795.2" x2="2744.7" y2="920"/>
				<line class="st4" x1="2570.3" y1="795.2" x2="2667.1" y2="920"/>
				<line class="st4" x1="2500.1" y1="795.2" x2="2582" y2="920"/>
				<line class="st4" x1="2441.8" y1="795.2" x2="2481.7" y2="920"/>
			</g>
			<g>
				<line class="st4" x1="2097.8" y1="795.2" x2="1971.1" y2="920"/>
				<line class="st4" x1="2165" y1="795.2" x2="2053.4" y2="920"/>
				<line class="st4" x1="2227.8" y1="795.2" x2="2131" y2="920"/>
				<line class="st4" x1="2298" y1="795.2" x2="2216.1" y2="920"/>
				<line class="st4" x1="2356.3" y1="795.2" x2="2316.4" y2="920"/>
			</g>
			<line class="st4" x1="2395.8" y1="921.5" x2="2395.8" y2="795.2"/>
			<line class="st4" x1="1971.1" y1="841.9" x2="2824.3" y2="841.9"/>
		</g>
	</g>
	<g>
		<g id="SHIRT">
			<path class="st5" d="M2741.6,760.4h-693.7l12.5-88.4c7.7-54.4,46.8-99.1,99.5-114.2l169.1-35.1h131.5l169.1,35.1
				c52.9,14.9,92,59.8,99.5,114.2L2741.6,760.4z"/>
			<g>
				<g>
					<path class="st6" d="M2441.6,623.7l-50-50.6c-1.1-1.1-1.1-2.9,0-3.8c1.1-1.1,2.9-1.1,3.8,0l45.9,46.5l71.3-80.8
						c1-1.1,2.7-1.2,3.8-0.3c1.1,1,1.2,2.7,0.3,3.8L2441.6,623.7z"/>
				</g>
				<g>
					<path class="st6" d="M2348.6,623.7l-75.1-85.2c-1-1.1-1-2.9,0.3-3.8c1.1-1,2.9-1,3.8,0.3l71.3,80.8l45.9-46.5
						c1.1-1.1,2.7-1.1,3.8,0c1.1,1.1,1.1,2.7,0,3.8L2348.6,623.7z"/>
				</g>
				<g>
					<path class="st6" d="M2395.9,656.7c-6.6,0-11.9-5.3-11.9-11.9c0-6.6,5.3-11.9,11.9-11.9c6.6,0,11.9,5.3,11.9,11.9
						C2407.8,651.4,2402.5,656.7,2395.9,656.7z M2395.9,638.4c-3.6,0-6.4,2.9-6.4,6.4c0,3.6,2.9,6.4,6.4,6.4s6.4-2.9,6.4-6.4
						S2399.5,638.4,2395.9,638.4z"/>
				</g>
				<g>
					<path class="st6" d="M2395.9,723.9c-6.6,0-11.9-5.3-11.9-11.9c0-6.6,5.3-11.9,11.9-11.9c6.6,0,11.9,5.3,11.9,11.9
						C2407.8,718.6,2402.5,723.9,2395.9,723.9z M2395.9,705.6c-3.6,0-6.4,2.9-6.4,6.4c0,3.6,2.9,6.4,6.4,6.4s6.4-2.9,6.4-6.4
						S2399.5,705.6,2395.9,705.6z"/>
				</g>
			</g>
		</g>
		<g id="HAND_1_">
			<polygon class="st7" points="2328.2,757.5 2104.1,757.5 2044.3,580.1 2268.4,515.9 			"/>
			<g>
				<path class="st6" d="M2115.8,603.1h-4.3c-10.8,0-19.6-8.8-19.6-19.6V522c0-4.4,3.6-8,8-8h18.5c4.4,0,8,3.6,8,8v70.5
					C2126.5,598.3,2121.7,603.1,2115.8,603.1z"/>
				<path class="st8" d="M2115.8,603.1h-4.3c-10.8,0-19.6-8.8-19.6-19.6V522c0-4.4,3.6-8,8-8h18.5c4.4,0,8,3.6,8,8v70.5
					C2126.5,598.3,2121.7,603.1,2115.8,603.1z"/>
				<path class="st6" d="M2206,603.1h4.3c10.8,0,19.6-8.8,19.6-19.6V522c0-4.4-3.6-8-8-8h-18.6c-4.4,0-8,3.6-8,8v70.5
					C2195.3,598.3,2200.1,603.1,2206,603.1z"/>
				<path class="st6" d="M2150.2,610.3h-9.9c-7.7,0-13.8-6.2-13.8-13.8v-74.3c0-4.4,3.6-8,8-8h18.5c4.4,0,8,3.6,8,8v77.5
					C2160.9,605.5,2156.1,610.3,2150.2,610.3z"/>
				<path class="st6" d="M2184.7,613h-8.2c-8.6,0-15.6-7-15.6-15.6V522c0-4.4,3.6-8,8-8h18.5c4.4,0,8,3.6,8,8v80.4
					C2195.3,608.2,2190.5,613,2184.7,613z"/>
				<path class="st8" d="M2206,603.1h4.3c10.8,0,19.6-8.8,19.6-19.6V522c0-4.4-3.6-8-8-8h-18.6c-4.4,0-8,3.6-8,8v70.5
					C2195.3,598.3,2200.1,603.1,2206,603.1z"/>
				<path class="st8" d="M2150.2,610.3h-9.9c-7.7,0-13.8-6.2-13.8-13.8v-74.3c0-4.4,3.6-8,8-8h18.5c4.4,0,8,3.6,8,8v77.5
					C2160.9,605.5,2156.1,610.3,2150.2,610.3z"/>
				<path class="st8" d="M2184.7,613h-8.2c-8.6,0-15.6-7-15.6-15.6V522c0-4.4,3.6-8,8-8h18.5c4.4,0,8,3.6,8,8v80.4
					C2195.3,608.2,2190.5,613,2184.7,613z"/>
			</g>
		</g>
		<g id="HEAD_5_">
			<g id="NECK_2_">
				<path class="st6" d="M2460.6,442v100.1c0,17.3-29.5,31.4-65.8,31.4s-65.8-14.1-65.8-31.4V442H2460.6z"/>
				<path class="st2" d="M2460.6,442c0,75.6-48.4,98-94.9,94.1c-0.1,0-0.3,0-0.4,0c-20.6-1.9-36.2-19.5-36.2-40v-53.9h131.5V442z"/>
			</g>
			<path id="HEAD_4_" class="st6" d="M2491.2,416.2v5.1c0,11.2-9.1,20.3-20.3,20.3h-10.4l0.1,2.3c0,32.4-26.2,58.6-58.6,58.6h-14.4
				c-32.4,0-58.6-26.2-58.6-58.6l0.1-2.3h-10.4c-11.2,0-20.3-9-20.3-20.3v-5.1c0-11.2,9.1-20.3,20.3-20.3h13.3l1.5-24.8
				c0-3.8,0.5-7.5,1.6-11c39.2,9.7,85.2-15.5,97.5-23c13.7,5.2,23.4,18.4,23.4,33.9l1.5,24.8h13.3
				C2482.1,395.9,2491.2,405,2491.2,416.2z"/>
			<path id="HAIR_2_" class="st9" d="M2471.9,395.9h-14.3l-1.5-24.8c0-15.5-9.7-28.7-23.4-33.9c-12.3,7.4-58.3,32.6-97.5,23
				c-1.1,3.4-1.6,7.1-1.6,11l-1.5,24.8h-8.9c0,0-18.2-88.3-0.3-104.5c13.3-11.9,135.1,14.1,148.5,32.6
				C2478.9,334.8,2471.9,395.9,2471.9,395.9z"/>
			<g id="FACE">
				<g>
					<path class="st2" d="M2437.6,390.6c-0.4,0-1-0.1-1.4-0.5l0,0c-0.1-0.1-9.1-7.4-23.3-7.4c-1.1,0-2.1-1-2.1-2.1s1-2.1,2.1-2.1
						c15.8,0,25.5,8,25.9,8.4c0.8,0.7,1,2.1,0.3,2.9C2438.8,390.3,2438.1,390.6,2437.6,390.6z"/>
				</g>
				<g>
					<path class="st2" d="M2385.5,433.1c-0.3,0-0.5,0-0.7-0.1c-1.1-0.4-1.6-1.6-1.2-2.6c3.8-10.1,2.9-22.9-2.5-34.1
						c-3.2-6.9-7.7-11.8-11.7-13.2c-8.8-3-21.1,1.2-21.3,1.2c-1.1,0.4-2.2-0.1-2.6-1.2c-0.4-1.1,0.1-2.2,1.2-2.6
						c0.5-0.1,13.7-4.7,23.9-1.2c5.1,1.8,10.3,7.4,14,15.4c5.8,12.2,6.7,26.2,2.6,37.4C2387.1,432.5,2386.3,433.1,2385.5,433.1z"/>
				</g>
				<g>
					<path class="st2" d="M2412.5,454.9c0.1,1.1-0.8,2.1-1.9,2.2h-0.1c-1.1,0-1.9-0.8-2.1-1.9c-0.1-1.4-0.4-2.7-0.8-4
						c-5.9,2.9-11.2,3.8-15.6,3.8c-8.6,0-13.8-3.6-14.1-3.8c-1-0.7-1.1-1.9-0.5-2.9c0.7-1,1.9-1.1,2.9-0.5c0.3,0.1,4.7,3.2,11.8,3.2
						c3.8,0,8.5-0.8,13.8-3.4c-0.8-1.4-1.6-2.2-1.6-2.2c-0.8-0.8-0.7-2.2,0.1-2.9c0.8-0.7,2.2-0.7,2.9,0.1
						C2407.4,443,2412.1,448.2,2412.5,454.9z"/>
				</g>
				
					<ellipse transform="matrix(0.9981 -6.221000e-02 6.221000e-02 0.9981 -20.7494 151.307)" class="st2" cx="2419.5" cy="408.9" rx="3.4" ry="6.9"/>
				
					<ellipse transform="matrix(0.9981 -6.221000e-02 6.221000e-02 0.9981 -20.8577 147.8265)" class="st2" cx="2363.5" cy="408.9" rx="3.2" ry="6.3"/>
				<path class="st2" d="M2325.6,422.8c-1.1,0-2.1-1-2.1-2.1c0-6-4.9-10.8-10.8-10.8c-1.1,0-2.1-1-2.1-2.1s1-2.1,2.1-2.1
					c8.2,0,14.9,6.7,14.9,14.9C2327.6,422,2326.7,422.8,2325.6,422.8z"/>
				<path class="st2" d="M2463.5,422.8c-1.1,0-2.1-1-2.1-2.1c0-8.2,6.7-14.9,14.9-14.9c1.1,0,2.1,1,2.1,2.1s-1,2.1-2.1,2.1
					c-6,0-10.8,4.9-10.8,10.8C2465.6,422,2464.7,422.8,2463.5,422.8z"/>
			</g>
		</g>
	</g>
</g>
<g id="TABLE">
	<path class="st4" d="M4945.7,3458.5l-587.3-1941.9c-11.7-38.7-47.4-65.1-87.9-65.1H706c-40.9,0-76.8,27-88.2,66.4L57.4,3458.5"/>
	<line class="st4" x1="1682.5" y1="795.2" x2="3241.5" y2="795.2"/>
</g>
<g id="BOY">
	<path id="PAPER_1_" class="st5" d="M2223.5,1090.3h368.3v316.3h-368.3C2223.5,1406.7,2223.5,1078.4,2223.5,1090.3z"/>
	<g id="BOY_1_">
		<g id="LEGS_1_">
			<g>
				<polygon class="st10" points="3600.8,2560.1 3429.5,2133.7 3705.3,2133.7 				"/>
				<path class="st10" d="M3130.9,1564.5L3130.9,1564.5c36.7-69.5,109-113,187.6-113h212.1l144.1,113H3130.9z"/>
			</g>
			<g>
				<g>
					<path class="st11" d="M3935.1,2063.7h-534.4l201.2,488.3c-14-22.8-97.8,1-186.5,55.4c-87.6,53.8-146.9,118.5-134.8,142.1
						L2847,1995c-112.4-190.3,24.7-430.6,245.7-430.6h1197.5l2.6,8.2C4371,1815.4,4190,2063.7,3935.1,2063.7z"/>
					<path class="st12" d="M4310.9,1704.5c-1.9,44.6-11.8,87.6-28.5,127.5l-628-267.4h623.3l14.5,42.5
						C4302.4,1632.6,4308,1668.4,4310.9,1704.5z"/>
					<path class="st2" d="M3602,2552c14,22.8-47.2,84.9-135.7,139.3c-88.7,54.4-171.1,81.7-185.1,59c-14-22.8,45.7-87.1,134.4-141.5
						C3504.1,2554.3,3587.9,2529.3,3602,2552z"/>
					<g>
						<path class="st13" d="M3405.2,2609.1l-390-689.4c-30.6-54.6,8.8-122,71.4-122h759.5c102.3,0,178.7-94.2,157.6-194.3"/>
						<path class="st13" d="M3276.6,2751.8c-14-22.8,46.5-95.2,138.9-149c103.8-60.5,171-78.4,191-46.3"/>
						<line class="st13" x1="3609.6" y1="2559.4" x2="3354.8" y2="1952"/>
						<line class="st14" x1="3077.8" y1="1560" x2="3699.4" y2="1560"/>
					</g>
				</g>
				<g>
					<path class="st9" d="M3429.4,2781.7l-37-50.5l-51-69.4c20.8-17.6,45.9-35.8,74-53.1c55.9-34.3,109.8-57,145.6-63.3l24.8,49.5
						l31,61.7C3594.9,2734.7,3429.4,2781.7,3429.4,2781.7z"/>
					<path class="st10" d="M3586,2594.9c-23,28.1-66.4,63.6-119.7,96.4c-25.6,15.8-50.7,29.2-73.8,39.9l-51-69.4
						c20.8-17.6,45.9-35.8,74-53.1c55.9-34.3,109.8-57,145.6-63.3L3586,2594.9z"/>
				</g>
				<g>
					<path class="st15" d="M3786.3,2928.5L3410,3198.8c-31.9,22.2-81.6,40.7-75-39.6c9.2-110.8,33.7-275.6,94.3-377.6l0,0
						c2.6-0.7,165.5-47.7,187.4-125.1l171.5,121.9C3837.7,2816.8,3836.6,2891.7,3786.3,2928.5z"/>
					<path class="st16" d="M3412,2817.3c29.9,5.6,197.7-53.9,223.8-145.6"/>
					<path class="st5" d="M3371.5,3171c0,0,245.6-341.2,420.3-322C3982,2869.7,3216,3369.9,3371.5,3171z"/>
					<path class="st16" d="M3364.5,3217.5c-19.1,1.2-39.2-21-11.4-56.6c0,0,255.6-353.8,437.6-333.8c28.1,3,37.6,25.9,31,45.7"/>
				</g>
			</g>
		</g>
		<g id="T-SHIRT">
			<path class="st17" d="M4312.3,1732.3c-86.9-20.6-303.3-74.7-550.1-131.8c-116-26.7-213.1-105.7-263.1-213.8l-224.7-486.2
				l136-215.6c41.8-66.4,113.1-108.6,191.4-113.4l133.8-8.2c134.9-8.2,243.3,76,284.4,204.7l272.2,796.4
				C4322,1639.1,4312.3,1732.3,4312.3,1732.3z"/>
			<path class="st18" d="M3392.6,927.8c0,0,71.6,112.4,234.6,137.3"/>
			<g>
				<path class="st19" d="M3489.2,723.2L3489.2,723.2c-7.4-8-20.4-5.8-25,4l0,0c-5.1,11,4.1,23.2,16,21.4l0,0
					C3492.4,746.8,3497.5,732.2,3489.2,723.2z"/>
				<path class="st19" d="M3830.7,957.6L3830.7,957.6c-7.4-8-20.4-5.8-25,4l0,0c-5.1,11,4.1,23.2,16,21.4l0,0
					C3834,981.2,3839.1,966.5,3830.7,957.6z"/>
				<path class="st19" d="M3938.9,1053.6L3938.9,1053.6c-7.4-8-20.4-5.8-25,4l0,0c-5.1,11,4.1,23.2,16,21.4l0,0
					C3942.1,1077.3,3947.1,1062.6,3938.9,1053.6z"/>
				<path class="st19" d="M4146.4,1596.7L4146.4,1596.7c-7.4-8-20.4-5.8-25,4l0,0c-5.1,11,4.1,23.2,16,21.4l0,0
					C4149.5,1620.3,4154.6,1605.7,4146.4,1596.7z"/>
				<path class="st19" d="M4030.2,1337.1L4030.2,1337.1c-7.4-8-20.4-5.8-25,4l0,0c-5.1,11,4.1,23.2,16,21.4l0,0
					C4033.5,1360.7,4038.6,1346,4030.2,1337.1z"/>
				<path class="st19" d="M4078.4,1150.4L4078.4,1150.4c-10.7,1.4-16.6,13.3-11.2,22.6l0,0c6,10.6,21.3,10.1,26.7-0.7l0,0
					C4099.5,1161.3,4090.4,1148.7,4078.4,1150.4z"/>
				<path class="st19" d="M4166,1427.4L4166,1427.4c-10.7,1.4-16.6,13.3-11.2,22.6l0,0c6,10.6,21.3,10.1,26.7-0.7l0,0
					C4187.1,1438.3,4178.2,1425.7,4166,1427.4z"/>
				<path class="st19" d="M3802.6,1128.6L3802.6,1128.6c-7.4-8-20.4-5.8-25,4l0,0c-5.1,11,4.1,23.2,16,21.4l0,0
					C3805.8,1152.2,3810.8,1137.6,3802.6,1128.6z"/>
				<path class="st19" d="M3727.1,1283.9L3727.1,1283.9c-7.4-8-20.4-5.8-25,4l0,0c-5.1,11,4.1,23.2,16,21.4l0,0
					C3730.4,1307.5,3735.4,1292.8,3727.1,1283.9z"/>
				<path class="st19" d="M3591.9,1229.6L3591.9,1229.6c8-7.4,5.8-20.4-4-25l0,0c-11-5.1-23.2,4.1-21.4,16l0,0
					C3568.3,1232.8,3582.8,1237.9,3591.9,1229.6z"/>
				<path class="st19" d="M3711.8,1497L3711.8,1497c8-7.4,5.8-20.4-4-25l0,0c-11-5.1-23.2,4.1-21.4,16l0,0
					C3688.3,1500.3,3702.9,1505.4,3711.8,1497z"/>
				<path class="st19" d="M3913.8,1267.6L3913.8,1267.6c8-7.4,5.8-20.4-4-25l0,0c-11-5.1-23.2,4.1-21.4,16l0,0
					C3890.2,1270.8,3904.9,1276,3913.8,1267.6z"/>
				<path class="st19" d="M3982.8,1554.7L3982.8,1554.7c8-7.4,5.8-20.4-4-25l0,0c-11-5.1-23.2,4.1-21.4,16l0,0
					C3959.1,1558,3973.7,1563.1,3982.8,1554.7z"/>
				<path class="st19" d="M3569.2,973.2L3569.2,973.2c-7.4-8-20.4-5.8-25,4l0,0c-5.1,11,4.1,23.2,16,21.4l0,0
					C3572.5,996.8,3577.6,982.1,3569.2,973.2z"/>
				<path class="st19" d="M3593.8,617.5L3593.8,617.5c-7.4-8-20.4-5.8-25,4l0,0c-5.1,11,4.1,23.2,16,21.4l0,0
					C3597.1,641.1,3602.1,626.4,3593.8,617.5z"/>
				<path class="st19" d="M3830.7,617.5L3830.7,617.5c-7.4-8-20.4-5.8-25,4l0,0c-5.1,11,4.1,23.2,16,21.4l0,0
					C3834,641.1,3839.1,626.4,3830.7,617.5z"/>
				<path class="st19" d="M3831.1,771.1L3831.1,771.1c-10,4-12.9,16.9-5.3,24.7l0,0c8.4,8.6,23,4.7,25.8-7.1l0,0
					C3854.3,776.7,3842.5,766.6,3831.1,771.1z"/>
				<path class="st19" d="M3696.5,683.6L3696.5,683.6c-10.4,3-14.4,15.5-7.8,24l0,0c7.5,9.5,22.5,6.9,26.3-4.5l0,0
					C3719,691.4,3708.1,680.2,3696.5,683.6z"/>
				<path class="st19" d="M3676.6,1063.4L3676.6,1063.4c-10.7,1.2-16.7,13-11.5,22.5l0,0c5.9,10.6,21.1,10.4,26.7-0.3l0,0
					C3697.6,1074.8,3688.8,1062.1,3676.6,1063.4z"/>
				<path class="st19" d="M3559.1,1349.1L3559.1,1349.1c-10.7,1.2-16.7,13-11.5,22.5l0,0c5.9,10.6,21.1,10.4,26.7-0.3l0,0
					C3580.1,1360.4,3571.3,1347.7,3559.1,1349.1z"/>
				<path class="st19" d="M3598.6,796.9L3598.6,796.9c-10.4,3-14.4,15.5-7.8,24l0,0c7.5,9.5,22.5,6.9,26.3-4.5l0,0
					C3621.1,804.8,3610.4,793.6,3598.6,796.9z"/>
				<path class="st19" d="M3712.1,873.7L3712.1,873.7c-10.4,3-14.4,15.5-7.8,24l0,0c7.5,9.5,22.5,6.9,26.3-4.5l0,0
					C3734.6,881.5,3723.9,870.2,3712.1,873.7z"/>
				<path class="st19" d="M3466.3,870.4L3466.3,870.4c6.9-8.4,3.2-21-7.3-24.1l0,0c-11.5-3.6-22.5,7.1-19.1,18.6l0,0
					C3443.4,876.7,3458.4,879.8,3466.3,870.4z"/>
				<path class="st19" d="M3986.1,870.8L3986.1,870.8c6.9-8.4,3.2-21-7.3-24.1l0,0c-11.5-3.6-22.5,7.1-19.1,18.6l0,0
					C3963,877.1,3978.3,880.2,3986.1,870.8z"/>
				<path class="st19" d="M3854.2,1426.7L3854.2,1426.7c6.9-8.4,3.2-21-7.3-24.1l0,0c-11.5-3.6-22.5,7.1-19.1,18.6l0,0
					C3831.1,1432.8,3846.4,1436,3854.2,1426.7z"/>
			</g>
		</g>
		<g id="HEAD_2_">
			<g id="NECK_1_">
				<path class="st9" d="M3744.8,558.8c-3,0.1-6,0.3-9.2,0.4l-133.8,8.2c-34.1,2.1-66.8,11.2-96.4,26.5l-41.1-123.1l183.3-134.4
					L3744.8,558.8z"/>
				<path class="st10" d="M3504.8,592L3504.8,592c38.1-17.3,68.6-48,85.8-86.1l66.6-147.4l-9.7-22.2l-183.3,134.4L3504.8,592z"/>
			</g>
			<g id="HEAD_3_">
				<path class="st9" d="M3659.3,348.8c0,12.8-5.2,24.3-13.6,32.6c-8.4,8.4-19.9,13.6-32.6,13.6h-40.3
					c-15.9,61.8-77.5,104.2-143.7,92.6l-30.3-5.3c-33.2-5.9-55.8-36.9-51.1-70.2l35.5-177.8c6.2-38,45.2-61.2,81.6-48.1l58.8,23.6
					c31.8,11,53.2,40.9,53.2,74.5v17.1l36.3,1.4C3638.6,302.6,3659.3,323.3,3659.3,348.8z"/>
				<g>
					<path class="st20" d="M3591,357.7c0-17.7,14.3-31.9,31.9-31.9"/>
					<path class="st20" d="M3402.9,271.6c0,0,28.8,0,49.4,27.6"/>
					
						<ellipse transform="matrix(0.1788 -0.9839 0.9839 0.1788 2488.1753 3624.4185)" class="st10" cx="3415.3" cy="321.7" rx="14.7" ry="6.9"/>
				</g>
			</g>
			<g id="HAIR_1_">
				<path class="st5" d="M3613.1,302.6c25.5,0,46.2,20.7,46.2,46.2c0,0.1,0,0.4,0,0.7c20.6-31.7,71-112.3,71-139.6
					c0-36.6-45.7-73.2-93-56.5c3.2-2.3,6.4-4.8,9.9-7.4c18.2-14.3,27.8-25,29.3-32.6c0.5-2.7,0.1-5.2-1.2-7.1
					c-5.5-7.8-11.5-11.2-18-10.1c-9.5,1.5-19.2,13.2-28.9,34.6c-4.4,9.7-7.8,19.3-9.7,25.2c-3.8-22.9-22.4-98.7-101.9-87.1
					c-27.4,4-40.3,15.4-43.9,27.8c-22.8-17.8-53.2-31.8-78.4-18.5c-43.6,22.9-38.3,60.5-13,87.1c-23.9-0.4-40.6,6.6-40.6,26.7
					c0,18.5,19.1,27.4,45.2,31c26.2,3.6,59.8,1.6,88.9-1.6c20.7-2.3,39.4-5.2,51.3-7.3c-8,16.3-11.1,30.3-10.4,42.1
					c1.2,24.4,18.9,38.8,43.9,43.9c5.3,1.1,11.1,1.8,17,2.1L3613.1,302.6z M3658.2,101.5c0.4-0.1,0.8-0.1,1.4-0.1
					c3.8,0,7.5,2.7,11.2,8c0.3,0.5,0.7,1.4,0.4,2.9c-2.2,11.1-30.3,32.2-46.6,43.3C3631.1,136.6,3644.7,103.9,3658.2,101.5z"/>
				<g>
					<path class="st6" d="M3503.7,142.1c-9.5,0-19.1-5.1-26.1-14c-7.8-9.9-10.4-22.1-7.1-32.6c0.4-1.4,1.8-2.2,3.2-1.9
						c0.5,0,1.1,0.1,1.5,0.5c20.7,14.8,37.3,35.9,34.8,44.3c-0.5,2.2-2.3,3.6-4.7,3.7C3504.8,142.1,3504.2,142.1,3503.7,142.1z
						 M3474.9,100.7c-1.2,8,1.2,16.7,7,24c6.2,7.8,14.7,12.3,22.9,11.8C3505.1,132.9,3495.9,116.6,3474.9,100.7z"/>
				</g>
			</g>
		</g>
		<g id="HANDS">
			<g id="LEFT_1_">
				<path class="st9" d="M3233,1352.9h-877.6c-21.7,0-34.7-23.9-23.2-42.1l116.8-183.5c15.2-23.9,41.4-38.3,69.7-38.3h594
					L3233,1352.9z"/>
				<path class="st21" d="M2538.1,1089.2L2608,974c4.1-6.9,11.7-11.1,19.6-11.1l0,0c18,0,28.9,19.6,19.6,35l-55.5,91.3H2538.1z"/>
				<path class="st10" d="M3233,1352.9h-197.3c-0.4-0.4-1-1-1.4-1.4c-48-49.4-68.4-124.2-41.4-196.4l28.1-66.1h91.7L3233,1352.9z"/>
				<path class="st9" d="M2479.4,1229.8h-110c-7.4,0-14.3,4-18,10.4l-11.7,20.3c-7.8,13.7,2.1,30.9,18,30.9h88.4
					c15.4,0,29.6-8,37.7-21.1l9.5-15.5C2500,1243.8,2492.2,1229.8,2479.4,1229.8z"/>
				<path class="st9" d="M2451,1291.3h-110c-7.4,0-14.3,4-18,10.4l-11.7,20.3c-7.8,13.7,2.1,30.9,18,30.9h88.4
					c15.4,0,29.6-8,37.7-21.1l9.5-15.5C2471.7,1305.3,2463.8,1291.3,2451,1291.3z"/>
				<path class="st9" d="M2510.8,1167.4h-110c-7.4,0-14.3,4-18,10.4l-11.7,20.3c-7.8,13.7,2.1,30.9,18,30.9h88.4
					c15.4,0,29.6-8,37.7-21.1l9.5-15.5C2531.5,1181.4,2523.6,1167.4,2510.8,1167.4z"/>
				<path class="st20" d="M2479.4,1229.8h-110c-7.4,0-14.3,4-18,10.4l-11.7,20.3c-7.8,13.7,2.1,30.9,18,30.9h88.4
					c15.4,0,29.6-8,37.7-21.1l9.5-15.5C2500,1243.8,2492.2,1229.8,2479.4,1229.8z"/>
				<path class="st20" d="M2451,1291.3h-110c-7.4,0-14.3,4-18,10.4l-11.7,20.3c-7.8,13.7,2.1,30.9,18,30.9h88.4
					c15.4,0,29.6-8,37.7-21.1l9.5-15.5C2471.7,1305.3,2463.8,1291.3,2451,1291.3z"/>
				<path class="st20" d="M2510.8,1167.4h-110c-7.4,0-14.3,4-18,10.4l-11.7,20.3c-7.8,13.7,2.1,30.9,18,30.9h88.4
					c15.4,0,29.6-8,37.7-21.1l9.5-15.5C2531.5,1181.4,2523.6,1167.4,2510.8,1167.4z"/>
				<path class="st9" d="M2670,1259.1c-33,0-64.9-11.9-89.8-33.7l-41.7-36.5h-38.4l-9.9,10.6c-17.7,18.9-39.5,29.8-65.4,29.8h-18.4
					c-9.6,0-15.5-10.7-10.3-18.8l46.2-72.4h227.8v121.1H2670z"/>
				<path class="st20" d="M2442.4,1138l-46.2,72.4c-5.2,8.1,0.7,18.8,10.3,18.8h18.4c25.9,0,47.7-10.7,65.4-29.8l9.9-10.6h38.4
					l41.7,36.5c24.8,21.7,56.8,33.7,89.8,33.7"/>
			</g>
			<g id="RIGHT_1_">
				<path class="st9" d="M3595.8,1096.5l-209.4,233.9c-44,49.2-107,77.3-173,77.3l0,0c-130.5,0-220.9-130.3-175.1-252.6L3287,570.8
					l-84.1-47c-11.9-9.3-17.7-24.5-15.1-39.4l14.3-96.1c4.4-21.4,26.2-38.1,47.4-43.1l98.5-22.2c8.4-1.9,16,5.2,14.7,13.6
					l-14.3,74.2c-5.6,36.2,18.8,67.5,55,73.6l0,0c29.6,5.1,50.5,34.8,47.7,64.7l-67.1,418.2C3384,967.6,3452.7,1074.7,3595.8,1096.5
					z"/>
				<line class="st20" x1="3435.3" y1="648.5" x2="3354.4" y2="1173.8"/>
				<path class="st20" d="M3267.6,395.3l-1.1,34c-0.4,14,8,26.3,20,29.8l126,25.5"/>
				<path class="st20" d="M3498.2,495.5L3397.4,482c-33.2-5.9-55.8-36.9-51.1-70.2l13-74.5c1.2-7-5.1-12.9-11.9-11.2l-102.8,24"/>
				<line class="st18" x1="3442.5" y1="1267.3" x2="3715.1" y2="964"/>
				<line class="st20" x1="3289.9" y1="570.9" x2="3338.1" y2="570.9"/>
				<path class="st20" d="M3267.7,404.3v11c0,13,9.5,23.7,21.1,23.7h15.1c6.6,0,11.8-5.9,11.8-13.3l1-71.6
					c0.1-11.1-11.7-18-21.3-15.6"/>
				<path class="st20" d="M3316.7,404.3v11c0,13,9.5,23.7,21.1,23.7h9.6"/>
			</g>
		</g>
	</g>
	<g id="CHAIR_1_">
		<line class="st4" x1="4227.3" y1="2133.7" x2="4386.5" y2="3458.5"/>
		<line class="st4" x1="3537.3" y1="2133.7" x2="3378.1" y2="3458.5"/>
		<line class="st4" x1="3432.7" y1="3003.6" x2="4331.8" y2="3003.6"/>
		<path class="st15" d="M3445.6,2137.8h865.2c11.5,0,20.8-9.3,20.8-20.8v-28.2c0-11.5-9.3-20.8-20.8-20.8h-865.2
			c-11.5,0-20.8,9.3-20.8,20.8v28.2C3424.7,2128.5,3434,2137.8,3445.6,2137.8z"/>
	</g>
</g>
<g id="GIRL">
	<g id="PAPER">
		<polygon class="st22" points="2005.8,1135.2 1873.3,1407.7 1473.1,1407.7 1633.9,1135.2 		"/>
		<path class="st23" d="M1918,1201.7c0,0-17.4-29.8-59.2-22.1c-31.3,5.6-68.3,31.4-91,17.6c-22.8-13.8-42.9-31.1-72.4-22.9
			c-29.5,8.2-51.3,24-51.3,24"/>
		<path class="st23" d="M1904.3,1244.2c0,0-17.4-29.8-59.2-22.1c-31.3,5.6-68.3,31.4-91,17.6c-22.8-13.8-42.9-31.1-72.4-22.9
			s-51.3,24-51.3,24"/>
	</g>
	<g id="GIRL_1_">
		<g id="LEGS">
			<g id="LEFT">
				<path class="st21" d="M2156.3,2358.5c0,36.6-101.6,66.2-228.9,66.2c-127.2,0-225.8-29.6-225.8-66.2s98.6-66.2,225.8-66.2
					C2054.7,2292.3,2156.3,2322.1,2156.3,2358.5z"/>
				<g>
					<path class="st24" d="M2097.8,2314V2787l-14.4-68.3c-15.5-73.5-80.4-126-155.5-126c-22.6,0-44.8,4.8-65,13.8
						c-0.7,0.3-1.4,0.7-2.2,1l-52.8-192.5l-29.3-107.1c40.2-9.7,92.1-15.6,148.9-15.6C1995,2292.3,2055.7,2300.7,2097.8,2314z"/>
					<path class="st25" d="M2097.8,2314v89.1c-42.1,13.3-102.8,21.7-170.3,21.7c-43.7,0-84.6-3.6-119.6-9.6l-29.3-107.1
						c40.2-9.7,92.1-15.6,148.9-15.6C1995,2292.3,2055.7,2300.7,2097.8,2314z"/>
				</g>
				<g>
					<g>
						<g>
							<path class="st5" d="M2087.7,2773.2c3.7,1.1,38.5,10.8,69.4,10.8c16.7,0,32.2-2.9,41-11.7c7.5-7.5,9.3-18.5,5.3-32.4
								c-3.6-12.3-10.4-20-20.4-22.8c-18.4-4.9-43.9,8.8-64,23.2c31.4-38.1,62.4-86.5,50.9-118.2c-4.1-11.2-13.4-18.8-25.1-20.2
								c-9.7-1.1-18.8,2.3-23,8.8c-19.7,30-35.9,153.3-36.6,158.5L2087.7,2773.2z M2127.4,2614.7c2.5-3.7,7.7-5.9,13.7-5.9
								c1,0,1.9,0,2.9,0.1c4.4,0.5,14.9,3,19.5,15.6c3,8.4,4.1,23.7-8.1,49.5c-11.5,24.4-32.4,53.1-62,85.6
								C2097.8,2728.4,2111.8,2638.4,2127.4,2614.7z M2193.2,2767.6c-9.1,9.1-29.6,11.8-59.6,8c-15.8-2.1-30.4-5.3-38.3-7.4
								c5.9-5.2,16.9-14.7,29.6-23.4c24.4-16.9,43.9-24.1,56.4-20.7c7.5,2.1,12.6,8,15.6,18
								C2200.2,2753.4,2199,2761.8,2193.2,2767.6z"/>
						</g>
					</g>
					<path class="st22" d="M1809.3,2645.9l-31.7,35.5c-35.9,40.3-41.8,99-14.5,145.6l139.5,239.1c27.3,46.8,77.3,75.4,131.4,75.4
						h57.7c41.8,0,72.9-38.4,64.3-79.3l-72.7-343.5c-15.5-73.5-80.4-126-155.5-126l0,0C1882.7,2592.7,1839.5,2612.1,1809.3,2645.9z"
						/>
					<path class="st11" d="M1917.2,2749.3l180,348.8c8.5,15.8,19.1,25.9,31.1,32.4c-10.4,7-23,11.2-36.7,11.2h-57.7
						c-54.2,0-104.2-28.8-131.4-75.4l-139.5-239.3c-5.6-9.7-9.9-19.9-12.8-30.4c-19.7-73.4,63.8-130.9,126.4-87.9
						C1891,2718.5,1905,2731.6,1917.2,2749.3z"/>
					<g>
						<g>
							<path class="st6" d="M1917.6,2750.2h-166.2c0.8-2.6,1.8-5.1,2.9-7.4h158c1.6,2.2,3.3,4.4,4.9,6.7L1917.6,2750.2z"/>
						</g>
						<g>
							<path class="st6" d="M1942,2797.3h-191.4c0-0.3-0.1-0.5-0.1-0.7c-0.5-2.2-1.1-4.5-1.5-6.7h189.4L1942,2797.3z"/>
						</g>
						<g>
							<polygon class="st6" points="1966.4,2844.6 1773.4,2844.6 1769,2837.1 1962.6,2837.1 							"/>
						</g>
						<g>
							<polygon class="st6" points="1990.8,2891.9 1800.9,2891.9 1796.5,2884.4 1987,2884.4 							"/>
						</g>
						<g>
							<polygon class="st6" points="2015.3,2939.1 1828.5,2939.1 1824.1,2931.7 2011.4,2931.7 							"/>
						</g>
						<g>
							<polygon class="st6" points="2039.7,2986.4 1856.1,2986.4 1851.7,2978.9 2035.7,2978.9 							"/>
						</g>
						<g>
							<polygon class="st6" points="2064.1,3033.7 1883.6,3033.7 1879.2,3026.2 2060.1,3026.2 							"/>
						</g>
						<g>
							<path class="st6" d="M2088.3,3080.9h-176.1c-1.8-2.5-3.6-4.9-5.2-7.4h177.4L2088.3,3080.9z"/>
						</g>
						<g>
							<path class="st6" d="M2124.4,3128.2h-153c-4.9-2.2-9.7-4.7-14.4-7.4h157.6C2117.7,3123.5,2121,3126,2124.4,3128.2z"/>
						</g>
					</g>
				</g>
			</g>
			<g id="RIGHT">
				<path class="st25" d="M1594.7,2348.8c-1.2,36.2-103.9,65.5-230.4,65.5s-229.1-29.2-230.4-65.5v-285.1h460.7V2348.8z"/>
				<g>
					<path class="st24" d="M1564.1,2396.1l-0.7,33.9l-6.6,330.6v-9.6c0-84.9-68.8-153.7-153.7-153.7h-9.3
						c-43.3,0-82.4,16.9-111.3,44l-20.2-136.3l-12.5-84.3c33.7,5.6,72.8,8.8,114.4,8.8C1449.8,2429.3,1524.2,2415.9,1564.1,2396.1z"
						/>
					<path class="st25" d="M1564.1,2396.1l-0.7,33.9c-51,36.2-208.6,80.8-301,74.9l-12.5-84.3c33.7,5.5,72.8,8.8,114.4,8.8
						C1449.8,2429.3,1524.2,2415.9,1564.1,2396.1z"/>
				</g>
				<g>
					<path class="st22" d="M1410.1,3146.2h25.5c66.9,0,121.2-54.3,121.2-121.2v-274c0-84.9-68.8-153.7-153.7-153.7h-9.3
						c-98.7,0-174.8,87.1-161.5,185l32.2,236.9C1274.5,3091.9,1336.6,3146.2,1410.1,3146.2z"/>
					<path class="st11" d="M1518.7,3113.1c-21.7,20.4-51,33-83.1,33h-25.5c-73.5,0-135.6-54.3-145.5-127l-32.2-236.9
						c-0.5-4.5-1.1-9.1-1.2-13.4c8.2-52.5,53.6-92.7,108.5-92.7c27,0,52,9.9,71.3,26.3c19.3,16.5,32.9,39.6,37.2,66.4l42.4,289.2
						C1493.6,3079.5,1503.8,3098.7,1518.7,3113.1z"/>
					<g>
						<g>
							<path class="st6" d="M1435.4,2732.2h-191.6c1.4-2.6,3-5.1,4.7-7.4h182.4C1432.5,2727.1,1434,2729.6,1435.4,2732.2z"/>
						</g>
						<g>
							<path class="st6" d="M1449.6,2779.4H1232c-0.3-2.5-0.5-4.9-0.7-7.4h217.2L1449.6,2779.4z"/>
						</g>
						<g>
							<polygon class="st6" points="1456.6,2826.7 1238.5,2826.7 1237.4,2819.3 1455.5,2819.3 							"/>
						</g>
						<g>
							<polygon class="st6" points="1463.5,2874 1244.9,2874 1243.8,2866.4 1462.4,2866.4 							"/>
						</g>
						<g>
							<polygon class="st6" points="1470.5,2921.1 1251.4,2921.1 1250.3,2913.7 1469.4,2913.7 							"/>
						</g>
						<g>
							<polygon class="st6" points="1477.3,2968.5 1257.7,2968.5 1256.7,2961 1476.2,2961 							"/>
						</g>
						<g>
							<polygon class="st6" points="1484.3,3015.8 1264.1,3015.8 1263.1,3008.2 1483.2,3008.2 							"/>
						</g>
						<g>
							<path class="st6" d="M1491.3,3062.9h-213.6c-1.2-2.5-2.3-4.9-3.3-7.4h215.7l0.4,2.5C1490.8,3059.6,1491,3061.3,1491.3,3062.9
								z"/>
						</g>
						<g>
							<path class="st6" d="M1515.9,3110.2h-202c-2.7-2.3-5.5-4.9-8-7.4h203.6C1511.5,3105.4,1513.7,3107.9,1515.9,3110.2z"/>
						</g>
					</g>
				</g>
			</g>
		</g>
		<g id="CLOTHES">
			<g>
				<path class="st5" d="M1694.4,867.1V1098c-10-26.2-89.3-22.5-176.5,10.6c-74.7,28.4-130.8,67.3-139,94.3v-325
					c0-96.7,51.7-183.1,131.1-230.2C1613.1,665.7,1694.4,755.5,1694.4,867.1z"/>
				<path class="st5" d="M1372.8,658.1c-70.2,48.8-114.9,129.9-114.9,219.8V1146H867.6l53.9-232c22.9-98.9,94.5-177.7,187.7-211.3
					L1372.8,658.1z"/>
			</g>
			<g>
				<path class="st21" d="M2162.4,1805.5v538.2c0-36.6-107.6-66.2-234.9-66.2s-230.4,29.6-230.4,66.2v-257.9
					c0-12.1-9.9-21.9-21.9-21.9H975.3c-210.5,0-366.1-195.9-318.5-400.9l168.9-727.8c26.9-116.1,120.9-204.6,238.5-224.6l45-7.7
					c-93.2,33.6-164.8,112.4-187.7,211.3l-53.9,232h390.4V877.9c0-90,44.8-171.1,114.9-219.8l0,0l61.7-10.4
					c12.8-2.2,25.2-3.2,37.7-3.2c1.6,0,3.2,0,4.8,0c1.5,0,3,0.1,4.4,0.1c0.3,0,0.5,0,0.8,0c1.1,0,2.3,0.1,3.4,0.1c0.1,0,0.4,0,0.5,0
					c0.7,0,1.4,0.1,1.9,0.1c1.2,0.1,2.3,0.1,3.6,0.3c1.4,0.1,2.9,0.3,4.3,0.4c1.4,0.1,2.6,0.3,4,0.4c0.3,0,0.5,0.1,1,0.1
					c1.4,0.1,2.9,0.4,4.3,0.5c0.1,0,0.3,0,0.3,0c1.5,0.3,3,0.4,4.5,0.7c-79.4,47.2-131.1,133.6-131.1,230.2v658.9h514.7
					C2042,1536.8,2162.4,1657,2162.4,1805.5z"/>
				<path class="st13" d="M1381.8,652.1c-70.2,48.8-124,135.9-124,225.8V1146H867.4l53.9-232c22.9-98.9,88.4-179.2,181.8-212.8"/>
				<path class="st13" d="M1697.1,2003.1c0-76.4,27-150.3,76.2-208.6"/>
				<g>
					<path class="st6" d="M1126.9,1975.8c-0.7,0-1.4-0.1-1.9-0.5l-18.1-9.9c-2.1-1.1-2.7-3.6-1.6-5.6c1.1-2.1,3.6-2.7,5.6-1.6
						l18.1,9.9c2.1,1.1,2.7,3.6,1.6,5.6C1129.7,1975,1128.4,1975.8,1126.9,1975.8z M1144.9,1971.2c-1.5,0-2.9-0.8-3.6-2.2
						c-1.1-2.1-0.4-4.5,1.6-5.6l18.1-9.9c2.1-1.1,4.5-0.3,5.6,1.6c1.1,2.1,0.4,4.5-1.6,5.6l-18.1,9.9
						C1146.3,1970.9,1145.6,1971.2,1144.9,1971.2z M1090.7,1956.2c-0.7,0-1.4-0.1-1.9-0.5l-18.1-9.9c-2.1-1.1-2.7-3.6-1.6-5.6
						c1.1-2.1,3.6-2.7,5.6-1.6l18.1,9.9c2.1,1.1,2.7,3.6,1.6,5.6C1093.5,1955.4,1092.2,1956.2,1090.7,1956.2z M1181,1951.4
						c-1.5,0-2.9-0.8-3.6-2.2c-1.1-2.1-0.4-4.5,1.6-5.6l18.1-9.9c3.2-1.6,6-3.6,8.9-5.6c1.8-1.4,4.4-1,5.8,0.8
						c1.4,1.8,1,4.4-0.8,5.8c-3.2,2.3-6.4,4.4-9.9,6.3l-18.1,9.9C1182.4,1951.3,1181.7,1951.4,1181,1951.4z M1054.9,1935.9
						c-0.8,0-1.6-0.3-2.5-0.8c-5.8-4.3-11.1-9.2-15.6-14.8c-1.5-1.8-1.2-4.4,0.5-5.8c1.8-1.5,4.4-1.2,5.8,0.5
						c4.1,5.1,8.9,9.5,14.1,13.3c1.8,1.4,2.2,4,1,5.8C1057.5,1935.4,1056.2,1935.9,1054.9,1935.9z M1223.4,1921.5
						c-1,0-1.8-0.3-2.6-1c-1.8-1.4-2.1-4-0.5-5.8c4.1-5.1,7.5-10.6,10.3-16.6c1-2.1,3.4-3,5.5-2.1c2.1,1,3,3.4,2.1,5.5
						c-3,6.6-6.9,12.8-11.4,18.2C1225.7,1921,1224.6,1921.5,1223.4,1921.5z M1029.1,1904.5c-1.5,0-3-0.8-3.7-2.3
						c-3-6.6-5.2-13.4-6.6-20.6c-0.4-2.2,1.1-4.4,3.3-4.8c2.2-0.4,4.4,1.1,4.8,3.3c1.2,6.4,3.2,12.6,5.9,18.5c1,2.1,0,4.5-2.1,5.5
						C1030.2,1904.4,1029.6,1904.5,1029.1,1904.5z M1240.4,1884.5c-0.3,0-0.5,0-0.7,0c-2.2-0.4-3.7-2.6-3.3-4.8
						c0.8-4.5,1.2-9,1.2-13.6v-6.2c0-2.3,1.8-4.1,4.1-4.1c2.3,0,4.1,1.8,4.1,4.1v6.2c0,5.1-0.4,10.1-1.4,15.1
						C1244.1,1883.1,1242.3,1884.5,1240.4,1884.5z M1021.5,1864.5c-2.3,0-4.1-1.8-4.1-4.1v-20.6c0-2.3,1.8-4.1,4.1-4.1
						c2.3,0,4.1,1.8,4.1,4.1v20.6C1025.7,1862.6,1023.7,1864.5,1021.5,1864.5z M1241.6,1843.5c-2.3,0-4.1-1.8-4.1-4.1v-20.6
						c0-2.3,1.8-4.1,4.1-4.1c2.3,0,4.1,1.8,4.1,4.1v20.6C1245.7,1841.7,1244,1843.5,1241.6,1843.5z M1021.5,1823.4
						c-2.3,0-4.1-1.8-4.1-4.1v-20.6c0-2.3,1.8-4.1,4.1-4.1c2.3,0,4.1,1.8,4.1,4.1v20.6C1025.7,1821.4,1023.7,1823.4,1021.5,1823.4z
						 M1241.6,1802.4c-2.3,0-4.1-1.8-4.1-4.1v-20.6c0-2.3,1.8-4.1,4.1-4.1c2.3,0,4.1,1.8,4.1,4.1v20.6
						C1245.7,1800.6,1244,1802.4,1241.6,1802.4z M1021.5,1782.2c-2.3,0-4.1-1.8-4.1-4.1v-20.6c0-2.3,1.8-4.1,4.1-4.1
						c2.3,0,4.1,1.8,4.1,4.1v20.6C1025.7,1780.3,1023.7,1782.2,1021.5,1782.2z M1241.6,1761.2c-2.3,0-4.1-1.8-4.1-4.1v-20.6
						c0-2.3,1.8-4.1,4.1-4.1c2.3,0,4.1,1.8,4.1,4.1v20.6C1245.7,1759.5,1244,1761.2,1241.6,1761.2z M1021.5,1741.1
						c-2.3,0-4.1-1.8-4.1-4.1v-17.7h11.1c2.3,0,4.1,1.8,4.1,4.1c0,2.3-1.8,4.1-4.1,4.1h-2.9v9.5
						C1025.7,1739.2,1023.7,1741.1,1021.5,1741.1z M1234.2,1727.5h-20.6c-2.3,0-4.1-1.8-4.1-4.1c0-2.3,1.8-4.1,4.1-4.1h20.6
						c2.3,0,4.1,1.8,4.1,4.1C1238.3,1725.7,1236.5,1727.5,1234.2,1727.5z M1193.1,1727.5h-20.6c-2.3,0-4.1-1.8-4.1-4.1
						c0-2.3,1.8-4.1,4.1-4.1h20.6c2.3,0,4.1,1.8,4.1,4.1C1197.2,1725.7,1195.4,1727.5,1193.1,1727.5z M1151.9,1727.5h-20.6
						c-2.3,0-4.1-1.8-4.1-4.1c0-2.3,1.8-4.1,4.1-4.1h20.6c2.3,0,4.1,1.8,4.1,4.1C1156.1,1725.7,1154.3,1727.5,1151.9,1727.5z
						 M1110.8,1727.5h-20.6c-2.3,0-4.1-1.8-4.1-4.1c0-2.3,1.8-4.1,4.1-4.1h20.6c2.3,0,4.1,1.8,4.1,4.1
						C1114.9,1725.7,1113.1,1727.5,1110.8,1727.5z M1069.7,1727.5h-20.6c-2.3,0-4.1-1.8-4.1-4.1c0-2.3,1.8-4.1,4.1-4.1h20.6
						c2.3,0,4.1,1.8,4.1,4.1C1073.8,1725.7,1072,1727.5,1069.7,1727.5z"/>
				</g>
				<g>
					<path class="st6" d="M738.8,1953.1c-1.5,0-2.9-0.8-3.6-2.2c-1.1-2.1-0.4-4.5,1.6-5.6l16.7-9.2c0.4-0.3,0.8-0.4,1.2-0.7
						c1.9-1.1,4.5-0.4,5.6,1.5c1.1,1.9,0.4,4.5-1.5,5.6c-0.4,0.3-0.8,0.5-1.4,0.7l-16.7,9.2C740.2,1952.9,739.5,1953.1,738.8,1953.1
						z M773.5,1931.1c-1.1,0-2.2-0.4-3-1.4c-1.5-1.6-1.4-4.3,0.3-5.8c4.8-4.4,9-9.5,12.8-14.8c1.2-1.9,3.8-2.3,5.8-1.1
						c1.9,1.2,2.3,3.8,1.1,5.8c-4,5.9-8.8,11.4-14,16.3C775.4,1930.9,774.5,1931.1,773.5,1931.1z M796.4,1897.4
						c-0.5,0-1-0.1-1.5-0.3c-2.1-0.8-3.2-3.2-2.3-5.3c2.3-6.2,4-12.5,4.9-18.9c0.3-2.2,2.3-3.8,4.7-3.6c2.2,0.3,3.8,2.3,3.6,4.7
						c-1,7.1-2.7,14.1-5.3,20.8C799.5,1896.4,798,1897.4,796.4,1897.4z M802.3,1857.1c-2.3,0-4.1-1.8-4.1-4.1v-20.6
						c0-2.3,1.8-4.1,4.1-4.1s4.1,1.8,4.1,4.1v20.6C806.4,1855.2,804.6,1857.1,802.3,1857.1z M802.3,1816c-2.3,0-4.1-1.8-4.1-4.1
						v-20.6c0-2.3,1.8-4.1,4.1-4.1s4.1,1.8,4.1,4.1v20.6C806.4,1814,804.6,1816,802.3,1816z M802.3,1774.8c-2.3,0-4.1-1.8-4.1-4.1
						v-20.6c0-2.3,1.8-4.1,4.1-4.1s4.1,1.8,4.1,4.1v20.6C806.4,1772.9,804.6,1774.8,802.3,1774.8z M802.3,1733.7
						c-2.3,0-4.1-1.8-4.1-4.1v-2.1h-10.3c-2.3,0-4.1-1.8-4.1-4.1c0-2.3,1.8-4.1,4.1-4.1h18.5v10.3
						C806.4,1731.8,804.6,1733.7,802.3,1733.7z M767.3,1727.5h-20.6c-2.3,0-4.1-1.8-4.1-4.1c0-2.3,1.8-4.1,4.1-4.1h20.6
						c2.3,0,4.1,1.8,4.1,4.1C771.4,1725.7,769.5,1727.5,767.3,1727.5z M726.2,1727.5h-20.6c-2.3,0-4.1-1.8-4.1-4.1
						c0-2.3,1.8-4.1,4.1-4.1h20.6c2.3,0,4.1,1.8,4.1,4.1C730.3,1725.7,728.4,1727.5,726.2,1727.5z M685,1727.5h-20.6
						c-2.3,0-4.1-1.8-4.1-4.1c0-2.3,1.8-4.1,4.1-4.1H685c2.3,0,4.1,1.8,4.1,4.1C689.2,1725.7,687.2,1727.5,685,1727.5z"/>
				</g>
			</g>
		</g>
		<g id="HAND">
			<path class="st21" d="M1694.4,1098c10,26.2-53.3,72.7-140.4,105.7c-87.1,33-165.1,38.1-175.1,11.8c-10-26.3,51.8-73.8,139-106.8
				C1605.1,1075.6,1684.4,1071.7,1694.4,1098z"/>
			<path class="st25" d="M1743.1,1948.7v14.5c-4.5-1.1-9.3-1.6-14.1-1.6h-17.7c-26.2,0-48.5-16.7-57-40l50.2-6.7
				C1724.8,1912.1,1743.1,1928,1743.1,1948.7z"/>
			<path class="st24" d="M1789.4,2022v111.6c0,26.1-21.1,47.2-47.2,47.2h-52.5c-13,0-24.8-5.2-33.3-13.8
				c-8.5-8.5-13.8-20.3-13.8-33.3h34.1c11.2,0,20.3-9,20.3-20.3v-29.2c0-11.2-9-20.3-20.3-20.3h-174.6
				c-68.1,0-123.4-55.3-123.4-123.4V1203c8.2-27,64.3-66.1,139-94.3c51-19.3,99.4-28.7,132.7-27.8v820.3c0,33.5,27.1,60.6,60.6,60.6
				h17.7C1762.3,1961.6,1789.4,1988.6,1789.4,2022z"/>
			<path class="st25" d="M1650.5,1080.7v74.6c-24.8,16.7-58.4,33.9-96.7,48.3c-87.2,33-165.1,38.1-175.1,11.8v-12.5
				c8.2-27,64.3-66.1,139-94.3C1568.9,1089.2,1617.2,1079.9,1650.5,1080.7z"/>
		</g>
		<g id="HEAD_1_">
			<g id="NECK">
				<polygon class="st24" points="1422.5,525.2 1370.9,658.1 1105.2,705.7 1174.6,525.2 				"/>
				<polygon class="st25" points="1422.5,525.2 1394.6,597.1 1131.1,638.2 1174.6,525.2 				"/>
			</g>
			<g id="HAIR">
				<path class="st26" d="M1578.3,254.8c0,18-31.1,37.8-67.1,54.6c-49,22.9-106.7,40.3-106.7,40.3l-38.9,73.4
					c52.9,28.1,73.6,78.6,81.9,113.8c5.2,22.5,5.2,38.5,5.2,38.5h-373.2c0,0-98-317.6,138.2-393.5
					C1362.1,135.4,1578.3,212.2,1578.3,254.8z"/>
				<circle class="st26" cx="1183.1" cy="134.3" r="92.8"/>
			</g>
			<g id="HEAD">
				<path class="st24" d="M1447.3,536.9c-7.7-33.3-26.9-80.8-74.2-109.4h-12.2c-11.2,0-21.5-4.5-28.9-11.9
					c-7.4-7.4-11.9-17.7-11.9-28.9c0-22.6,18.2-40.9,40.9-40.9l51.7,1.1l0,0h1.4c1-0.3,1.9-0.7,3-1c14-3,58.3-13.7,95-32.1l4.3,25.4
					l13.7,81.3C1539.3,476.3,1501.1,527.7,1447.3,536.9z"/>
				<path class="st25" d="M1516.1,339c-45,18.2-103.7,7.7-103.7,7.7s55.3-11,99.4-33L1516.1,339z"/>
				<path class="st27" d="M1392.7,394.4c0-15.6-12.6-28.2-28.2-28.2"/>
			</g>
		</g>
	</g>
	<g id="CHAIR">
		<line class="st4" x1="1537.9" y1="2133.7" x2="1697.1" y2="3458.5"/>
		<line class="st4" x1="847.8" y1="2133.7" x2="688.8" y2="3458.5"/>
		<line class="st4" x1="743.3" y1="3003.6" x2="1642.4" y2="3003.6"/>
		<path class="st15" d="M709.5,2133.7h966.8c11.5,0,20.8-9.3,20.8-20.8v-28.2c0-11.5-9.3-20.8-20.8-20.8H709.5
			c-11.5,0-20.8,9.3-20.8,20.8v28.2C688.8,2124.3,698.1,2133.7,709.5,2133.7z"/>
	</g>
</g>
</svg>
