<?xml version="1.0" encoding="utf-8"?>
<!-- Generator: Adobe Illustrator 20.0.0, SVG Export Plug-In . SVG Version: 6.00 Build 0)  -->
<svg version="1.1" id="Слой_1" xmlns="http://www.w3.org/2000/svg" xmlns:xlink="http://www.w3.org/1999/xlink" x="0px" y="0px"
	 viewBox="0 0 5000 3500" style="enable-background:new 0 0 5000 3500;" xml:space="preserve">
<style type="text/css">
	.st0{fill:#FFCF2D;}
	.st1{fill:#FFFFFF;stroke:#FFCF2D;stroke-width:6;stroke-linecap:round;stroke-miterlimit:10;}
	.st2{fill:none;stroke:#FFCF2D;stroke-width:6;stroke-linecap:round;stroke-miterlimit:10;}
	.st3{fill:none;stroke:#3FB1B5;stroke-width:6;stroke-linecap:round;stroke-miterlimit:10;}
	.st4{fill:#FFFFFF;stroke:#3FB1B5;stroke-width:6;stroke-linecap:round;stroke-miterlimit:10;}
	.st5{fill:#FE5244;}
	.st6{fill:#3FB1B5;}
	.st7{fill:#D0F0E4;}
	.st8{fill:#A0505A;}
	.st9{fill:#73325A;}
	.st10{fill:none;stroke:#FFFFFF;stroke-width:6;stroke-linecap:round;stroke-miterlimit:10;}
	.st11{fill:#66B0F0;}
	.st12{fill:#FFFFFF;stroke:#66B0F0;stroke-width:6;stroke-linejoin:round;stroke-miterlimit:10;}
	.st13{fill:#FFFFFF;}
	.st14{fill:none;stroke:#FFFFFF;stroke-width:6;stroke-linecap:round;stroke-linejoin:round;stroke-miterlimit:10;}
	.st15{fill:#FFFFFF;stroke:#3FB1B5;stroke-width:6;stroke-linejoin:round;stroke-miterlimit:10;}
	.st16{fill:none;stroke:#73325A;stroke-width:6;stroke-linecap:round;stroke-miterlimit:10;}
	.st17{fill:none;stroke:#FE5244;stroke-width:6;stroke-linejoin:round;stroke-miterlimit:10;}
	.st18{opacity:0.7;fill:#50B89D;enable-background:new    ;}
	.st19{font-family:'ArialMT';}
	.st20{font-size:250.6199px;}
	.st21{fill:none;stroke:#F05449;stroke-width:10;stroke-miterlimit:10;}
	.st22{fill:none;stroke:#3FB1B5;stroke-width:10;stroke-miterlimit:10;}
	.st23{fill:none;stroke:#FE5244;stroke-width:21;stroke-linecap:round;stroke-linejoin:round;stroke-miterlimit:10;}
</style>
<g id="LAMP">
	<polygon class="st0" points="3236.4,131.9 3496.8,383.2 3758.5,1799.8 1303.7,1799.8 	"/>
	<g>
		<g>
			<path class="st1" d="M3499,381.2l-261.2-252.1l43.7-45.4c64.3-66.8,180.3-59.2,247.1,5l0,0c66.8,64.3,78.5,180.3,14.2,247.1
				L3499,381.2z"/>
			<line class="st2" x1="3542.7" y1="335.8" x2="3281.4" y2="83.7"/>
		</g>
		<path class="st3" d="M3542.9,100.2l29.2-22.4c39.2-30,95.5-22.1,124.9,17.8l717.9,873.9L4047.4,1789"/>
		<circle class="st1" cx="4403.2" cy="973.8" r="40.3"/>
		<path class="st1" d="M3945.3,1697.4h196.2c56.4,0,102.1,45.8,102.1,102.1v2.9h-400.5v-2.9
			C3843.2,1743.2,3888.8,1697.4,3945.3,1697.4z"/>
	</g>
</g>
<path class="st4" d="M2994.9,1503.6H1753c-46.7,0-84.5-37.8-84.5-84.5V550.5c0-46.7,37.8-84.5,84.5-84.5h1241.9
	c46.7,0,84.5,37.8,84.5,84.5V1419C3079.5,1465.7,3041.7,1503.6,2994.9,1503.6z"/>
<g>
	<path class="st5" d="M1809.9,603.4h-19.5c-6.3,0-11.6-5.1-11.6-11.6v-19.5c0-6.3,5.1-11.6,11.6-11.6h19.5c6.3,0,11.6,5.1,11.6,11.6
		v19.5C1821.3,598.3,1816.2,603.4,1809.9,603.4z"/>
	<path class="st5" d="M1898.4,603.4H1879c-6.3,0-11.6-5.1-11.6-11.6v-19.5c0-6.3,5.1-11.6,11.6-11.6h19.5c6.3,0,11.6,5.1,11.6,11.6
		v19.5C1910,598.3,1904.7,603.4,1898.4,603.4z"/>
	<path class="st5" d="M1987,603.4h-19.5c-6.3,0-11.6-5.1-11.6-11.6v-19.5c0-6.3,5.1-11.6,11.6-11.6h19.5c6.3,0,11.6,5.1,11.6,11.6
		v19.5C1998.6,598.3,1993.4,603.4,1987,603.4z"/>
</g>
<g>
	<polygon class="st4" points="2636.1,1799.8 2154.1,1799.8 2248.7,1503.6 2541.4,1503.6 	"/>
	<polygon class="st6" points="2192,1681.3 2248.7,1503.6 2541.4,1503.6 	"/>
</g>
<g id="TABLE">
	<line class="st3" x1="4382.6" y1="1802.4" x2="889.8" y2="1802.4"/>
	<g>
		<path class="st4" d="M2014.3,1825.5v1624.4h-91.7v-309.2c0-28.8-23.4-52.2-52.2-52.2H1214c-28.8,0-52.2,23.4-52.2,52.2v309.2H1070
			V1825.5H2014.3z"/>
		<polygon class="st7" points="2017.1,1825.5 2017.1,2256.5 1070,3036.3 1070.2,1825.5 		"/>
		<path class="st3" d="M1922.6,1949.1v294.6c0,27.4-22.1,49.5-49.5,49.5h-661.8c-27.4,0-49.5-22.1-49.5-49.5v-294.6
			c0-27.4,22.1-49.5,49.5-49.5h661.8C1900.5,1899.7,1922.6,1921.8,1922.6,1949.1z"/>
		<polygon class="st0" points="1710.5,2516.3 1384.8,2516.3 1371.2,2423.1 1697.1,2423.1 		"/>
		<g>
			<path class="st4" d="M1884.3,2369.3c-40.7,0-73.5,32.9-73.5,73.5v73.5h-277.2v-73.5c0-40.7,32.9-73.5,73.5-73.5H1884.3z"/>
			<path class="st4" d="M1953.4,2423.1h-277.2c-8.6-31.1-37.1-53.8-70.9-53.8h277.2C1916.3,2369.3,1944.7,2392,1953.4,2423.1z"/>
		</g>
		<path class="st3" d="M1922.6,2565.8v294.6c0,27.4-22.1,49.5-49.5,49.5h-661.8c-27.4,0-49.5-22.1-49.5-49.5v-294.6
			c0-27.4,22.1-49.5,49.5-49.5h661.8C1900.5,2516.3,1922.6,2538.5,1922.6,2565.8z"/>
		<path class="st3" d="M1406.7,2090.6c0-23.4,18.9-42.5,42.5-42.5h186.2c23.4,0,42.5,18.9,42.5,42.5"/>
		<path class="st3" d="M1406.7,2707.3c0-23.4,18.9-42.5,42.5-42.5h186.2c23.4,0,42.5,18.9,42.5,42.5"/>
	</g>
	<rect x="4145.8" y="1825.5" class="st4" width="97.8" height="1627.9"/>
	<line class="st3" x1="2582.2" y1="3453.4" x2="4622.4" y2="3453.4"/>
</g>
<g id="PLANT">
	<path class="st4" d="M1347.7,1579.2h-59.1c0,0-84.3-351.4-158.4-362.9c-74.1-11.4-77.9,123.8-77.9,123.8s1.3-205.6,186.4-177.5
		C1424,1190.8,1347.7,1579.2,1347.7,1579.2z"/>
	<path class="st3" d="M1145.3,1171.6c0,0,168.8-62.4,176.4,402.3"/>
	<rect x="1231.1" y="1573.9" class="st5" width="277.5" height="225.9"/>
	<path class="st4" d="M1567,1686.9c-17.6,7.6-38.7,6.7-58.3-1.8c-14.5-6.3-28.2-16.7-39.2-30.9c-15.3-19.7-25.5-46.7-25.5-80.3l0,0
		c0-81.3-64.7-132.4-91.3-24.7c-1.8,7.5-3.6,15.7-5,24.7v-0.3v-0.5l0,0c0-0.3,0-0.7,0.1-1.1v-0.5c0.5-6.7,2.5-26.6,8.6-50.5
		c4.5-17.8,11.2-37.5,21.2-55.8c5-9.1,10.8-17.8,17.6-25.5c17.6-20.3,41.8-34.5,74.9-34.5c60.8,0,105.3,71.6,122.2,142.9
		C1607.1,1610.1,1601.1,1672.1,1567,1686.9z"/>
	<path class="st3" d="M1395.3,1439.7c0,0,121.8-86.7,157.6,249.7"/>
	<path class="st6" d="M1048.3,1340.1c0,21.7-2.5,104.7,76.7,108.5c79.2,3.8,87.1-115.8,87.1-115.8s-38.9-105.8-82-116.6
		C1057.4,1198,1048.3,1340.1,1048.3,1340.1z"/>
	<path class="st6" d="M1444,1573.9h-96.3C1369.9,1434.6,1444,1486.9,1444,1573.9z"/>
</g>
<g id="GIRL">
	<g id="GIRL_1_">
		<g id="LEGS">
			<g id="RIGHT_LEG">
				<polygon class="st8" points="3311.5,2275.4 3311.5,3007.8 3142.3,3007.8 3034.6,2706.9 2880.2,2275.4 				"/>
				<polygon class="st9" points="2880.2,2275.4 3311.5,2275.4 3311.5,2510.6 2931.5,2418.7 				"/>
				<g>
					<path class="st10" d="M3311.5,2706.9v300.9h-169.2l-107.8-300.9C3034.6,2706.9,3121.8,2755,3311.5,2706.9z"/>
					<circle class="st10" cx="3122.6" cy="2758.3" r="19.2"/>
					<circle class="st10" cx="3214.1" cy="2820.3" r="19.2"/>
					<circle class="st10" cx="3282.3" cy="2751.5" r="19.2"/>
					<circle class="st10" cx="3255.3" cy="2892.4" r="19.2"/>
					<circle class="st10" cx="3141.8" cy="2857.4" r="19.2"/>
					<circle class="st10" cx="3173.1" cy="2962.6" r="19.2"/>
				</g>
				<g>
					<path class="st11" d="M3391.5,3144.3l-116,240.9c-16.4,38.8-54.5,64.1-96.7,64.1h-148c-37.9,0-60.9-38.4-46.4-73.4l148.8-358.9
						c8.3-21.8,22.9-40,41.2-52.8c18.4-12.8,40.5-20,63.8-20c32.4,0,64.5,22,85.8,46.3l51.6,55.7
						C3399.3,3073.3,3405.5,3111.3,3391.5,3144.3z"/>
					<path class="st12" d="M3391.5,3144.3l-116,240.9c-16.4,38.8-54.5,64.1-96.7,64.1h-157.4c-14.6,0-22.9-9.1-27.8-21.6h35
						c42.2,0,80.3-25.3,96.7-64.1l133.8-279.1c12.5-26.1,38.9-42.8,67.9-42.8c37.8,0,66.4,27.6,71.7,62.6
						C3399.3,3117.9,3396.9,3131.4,3391.5,3144.3z"/>
					<g>
						<path class="st13" d="M3364.8,3034.6c-13.9-7.6-30.8-13.2-45.5-13.2c-28.3,0-54.5,16.4-66.7,42L3114,3352.4
							c-17.6,41.7-58.4,68.7-103.8,68.7h-25.5c-1.3-2.5-2.2-5.1-3.2-7.9h28.7c42.2,0,80.1-25.1,96.6-63.9l0.1-0.1l138.7-289.1
							c13.6-28.3,42.5-46.4,73.8-46.4c10,0,22,3.3,32.2,6.8L3364.8,3034.6z"/>
					</g>
				</g>
			</g>
			<g id="LEFT_LEG">
				<path class="st8" d="M2880.2,2275.4l-33,431.4l-14.7,193.3c0,0-96.2,107.1-205.6,41.1l-50.7-234.2l-115.9-535.9
					c-31.3-144.9,67.6-285.8,214.6-305.4L2880.2,2275.4z"/>
				<g>
					<path class="st10" d="M2847.2,2706.9l-14.7,198.5c0,0-96.2,107.1-205.6,41.1l-50.7-239.5
						C2703.4,2745.2,2847.2,2706.9,2847.2,2706.9z"/>
					<circle class="st10" cx="2696" cy="2807" r="19.2"/>
					<circle class="st10" cx="2818.1" cy="2777.5" r="19.2"/>
					<circle class="st10" cx="2622.3" cy="2751.5" r="19.2"/>
					<circle class="st10" cx="2676.8" cy="2911.6" r="19.2"/>
					<circle class="st10" cx="2766.4" cy="2873.2" r="19.2"/>
				</g>
				<g>
					<path class="st11" d="M2959.3,2946.2l-126.8,507.2h-40c-1.8,0-3.6-0.1-5.4-0.3c-30.3-2.8-55.8-28.3-62.2-58.4l-98.2-453.8
						c109.5,66.2,205.8-40.9,205.8-40.9L2959.3,2946.2z"/>
					<path class="st12" d="M2965.7,3206.4c26.7-141,34.1-248.8-12-257.5c-46.1-8.7-128,84.9-154.7,225.9
						c-26.7,141-12.8,265.8,33.3,274.5C2878.4,3458.1,2939,3347.6,2965.7,3206.4z"/>
					<g>
						<path class="st13" d="M2780.6,3172.6c-13.8,73.2-17.9,143.8-11.3,199.1c4.7,39.7,14.7,68,28.4,81.7h-5.3
							c-1.8,0-3.6-0.1-5.4-0.3c-12.4-16.3-21.2-43.7-25.7-80.5c-6.7-55.9-2.6-127.5,11.4-201.4c13.3-70,40.1-135.7,75.8-185
							c21.3-29.5,43.7-50.1,64.1-59.5l11.8,3.9C2877.6,2944.6,2806.3,3037.2,2780.6,3172.6z"/>
					</g>
				</g>
			</g>
		</g>
		<g id="SKIRT">
			<path class="st5" d="M2674.8,1865.6l600.2-61.8l600,168.3l-5.1,79.7c-8.2,125.8-116.6,223.7-242.6,223.7h-746.9L2674.8,1865.6z"
				/>
			<g>
				<path class="st14" d="M3840.8,1966.2c0,114.2-113.9,253.9-240,253.9h-746.9"/>
				<path class="st14" d="M3769.6,1943.5c-18.7,102-118.4,210.9-227.6,210.9h-718.4"/>
				<path class="st14" d="M3688.7,1919.3c-31.6,86.6-117.2,168-210,168h-693.3"/>
				<path class="st14" d="M3626.5,1902.3c-41.4,63-109.5,112.6-182,112.6h-693.3"/>
				<path class="st14" d="M3557,1882.8c-39.9,40.1-91.4,66.3-145.4,66.3h-693.3"/>
				<path class="st14" d="M3466.6,1856.6c-28.2,15.9-58.9,25.4-90.5,25.4h-693.3"/>
				<line class="st14" x1="2878.9" y1="2275.4" x2="2673.5" y2="1865.6"/>
			</g>
		</g>
		<g id="HANDS">
			<g id="RIGHT_HAND">
				<path class="st15" d="M3907.9,1422.9c-56.6,16.1-112.2,11.3-118.2-5.9c-5.5-16.4,19.5-44.6,70.1-63.3c2.5-0.9,5.1-1.8,7.8-2.8
					c15.3-5.1,30.5-8.4,44.9-10.1c42.5-5.4,77.1,2.2,81.4,15.1C3999.9,1373.1,3967.8,1405.9,3907.9,1422.9z"/>
				<path class="st8" d="M3872.1,1806.5h-21.7l-57-384.6v-0.3l-1.4-9.6c2.8-17.5,30.1-42.2,78.4-58.3c24.1-8,48-11.6,68.4-12
					l20.8,57l2,5.4l65.8,180.4C4066.9,1692.3,3987,1806.5,3872.1,1806.5z"/>
				<path class="st9" d="M3960.9,1402.9c-13.8,8.7-31.7,16.7-53,22.8c-48.9,13.8-98.5,8.2-114.5-3.7v-0.3l-1.4-9.6
					c2.8-17.5,30.1-42.2,78.4-58.3c24.1-8,48-11.6,68.4-12L3960.9,1402.9z"/>
			</g>
			<g id="LEFT_HAND">
				<path class="st8" d="M3167.4,1490.1l-69.1,171.8c-34.1,84.9-116.4,140.5-208,140.5h-928.5v-85c0-20.5,12.6-38.9,31.8-46.2
					l95.4-36.2c8.7-3.3,17.8-5,27-5h108.3l612.9-61.8L2943,1326L3167.4,1490.1z"/>
				<path class="st16" d="M2061.8,1687.3l-72,27.2c-14.5,5.5-24.1,19.3-24.1,34.9"/>
				<path class="st16" d="M2061.8,1730.7l-72,27.2c-14.5,5.5-24.1,19.3-24.1,34.9"/>
				<line class="st16" x1="2061.8" y1="1772.6" x2="1989.9" y2="1798.5"/>
				<polygon class="st9" points="2943,1326.1 2927.5,1361.5 3126.3,1592.5 3167.4,1490.1 				"/>
			</g>
		</g>
		<g id="T-SHIRT">
			<path class="st6" d="M3793.5,1422.1l81.6,550l-599.8-168.3L3167.4,1490l-278.1-203.3l97.6-116.3
				c87.1-103.8,215.6-163.8,351.2-163.8h192.8c167.6,0,322,91.6,402.3,238.7l62.5,108.2c0,0-18.8-27.6-120.3,0.1
				C3786.1,1378.1,3793.5,1422.1,3793.5,1422.1z"/>
			<line class="st14" x1="3167.4" y1="1487.5" x2="3198.6" y2="1352.2"/>
			<line class="st14" x1="3859.9" y1="1843.6" x2="3758.5" y2="1213"/>
			<line class="st14" x1="3275.1" y1="1801.3" x2="3873.7" y2="1972"/>
		</g>
		<g id="HEAD">
			<polygon id="NECK" class="st8" points="3307.4,918.7 3307.4,1007.1 3463.5,1005.8 3463.5,849.7 			"/>
			<g id="HEAD_1_">
				<path class="st8" d="M3476.1,822.5v2.4c0,23.7-17.9,42.9-41.6,42.9h-9.2c-5.9,23.4-58.5,50.8-95.9,50.8h-43.6
					c-47.6,0-84.1-42.8-76.3-89.9l2.1-12.8l-12.9-7.2c-7.4-4.2-9.5-13.8-4.3-20.7l27.9-36.8l6.1-36.3c4.9-29.9,24.5-54.2,50.5-66.2
					c10.3,115.7,112.4,129.3,139.3,130.9h15C3456.9,779.6,3476.1,798.8,3476.1,822.5z"/>
				<path class="st16" d="M3407,833.8c0-18.7,15.1-33.8,33.8-33.8"/>
				<ellipse class="st9" cx="3264.4" cy="765.3" rx="6.7" ry="15.5"/>
				<path class="st16" d="M3254.1,717.2c0,0,18.6-1.8,37.6,24.5"/>
			</g>
			<g id="HAIR">
				<path class="st9" d="M3418.2,779.6h15c23.7,0,42.9,19.2,42.9,42.9v2.4c0,23.7-17.9,42.9-41.6,42.9l-10.1,7.1
					c-42.6,27.4-101.6,135-87.1,211.2c16.3,85.7,90.9,104.7,159.9,91.6s119.2-53.3,102.9-139.1c-1.8-10.1-4.9-20.3-8.7-30.3
					c1.2,0.4,2.2,0.8,3.4,1.2c82.9,22.6,180.3,25.3,207.1-39.5c26.8-64.7,20.8-128.8-59.9-162.2c-46.8-19.5-110.5-19.3-159.9-5.9
					c24.9-86.4-19.3-182.6-100.5-192.2c-127.5-15.1-200.6,37.5-202.6,38.9l0,0C3278.9,663.8,3289.3,772.1,3418.2,779.6z"/>
				<path class="st14" d="M3585.4,798.8c-10.4,33.8-31.8,70-66.7,94.6c0,0,61.6,40.7,76,116.2"/>
				<g>
					<g>
						<path class="st17" d="M3621.2,795.9h-34.9V761c0-18.3,14.7-33,33-33h1.8c18.3,0,33,14.7,33,33v1.8
							C3654.4,781,3639.5,795.9,3621.2,795.9z"/>
						<path class="st17" d="M3608.5,831.7l-22.4-35.5l35.5-22.4c17.8-11.2,41.3-5.9,52.5,11.8l2.1,3.3c11.2,17.8,5.9,41.3-11.8,52.5
							l-3.3,2.1C3643.1,854.7,3619.7,849.5,3608.5,831.7z"/>
					</g>
					<g>
						<path class="st17" d="M3402.4,895.1l24.9-23.8l24.3,27.5c12,13.8,10.4,34.7-3.4,46.6l-1.4,1.2c-13.8,12-34.7,10.4-46.6-3.4
							l-1.2-1.4C3387,928,3388.6,907.1,3402.4,895.1z"/>
						<path class="st17" d="M3438.7,912.2l-11.2-40.4l40.4-11.2c20.3-5.7,41.2,6.2,46.8,26.4l1.1,3.8c5.7,20.3-6.2,41.2-26.4,46.8
							l-3.8,1.1C3465.3,944.3,3444.4,932.4,3438.7,912.2z"/>
					</g>
				</g>
			</g>
		</g>
	</g>
	<g id="CHAIR">
		<line class="st2" x1="3079.7" y1="2376.6" x2="2850.5" y2="3449.3"/>
		<line class="st2" x1="3666.2" y1="2376.6" x2="3895.4" y2="3449.3"/>
		<line class="st2" x1="2901.3" y1="3211.2" x2="3841.5" y2="3211.2"/>
		<path class="st12" d="M3846.6,2376.6h-947.5c-12,0-21.7-9.7-21.7-21.7v-57.8c0-12,9.7-21.7,21.7-21.7h947.5
			c12,0,21.7,9.7,21.7,21.7v57.8C3868.3,2366.9,3858.6,2376.6,3846.6,2376.6z"/>
	</g>
</g>
<g id="YZJres.tif">
	
		<image style="overflow:visible;" width="1192" height="1227" id="Layer_0_1_" xlink:href="AA8B39B634D6C64F.png"  transform="matrix(0.6313 0 0 0.6313 2018.834 597.5266)">
	</image>
</g>
<path class="st3" d="M2940.8,1433.2h-1140c-42.9,0-77.5-33.4-77.5-74.8V589.2c0-41.4,34.7-74.8,77.5-74.8h1140
	c42.9,0,77.5,33.4,77.5,74.8v769.1C3018.5,1399.6,2983.7,1433.2,2940.8,1433.2z"/>
<rect x="340.3" y="1200.4" class="st18" width="557.7" height="517.9"/>
<text transform="matrix(0.6 0 0 1 483.4331 1541.3076)" class="st13 st19 st20">&lt; / &gt;</text>
<polyline class="st21" points="377.4,560.8 588.1,350.1 729.8,684.1 857.4,408.3 969.7,582.1 1161.9,381.2 "/>
<polyline class="st21" points="377.4,209.1 377.4,816.9 1254.3,816.9 "/>
<polyline class="st22" points="377.4,466.1 543.5,582.1 715.8,436.4 874.3,606.9 1212.1,251.8 "/>
<polygon class="st23" points="2032.8,694.8 2032.8,1189 2320.9,1358.4 2614.2,1191 2614.2,861.2 2759.3,777 2759.3,939.3 2323,1191 
	2176.8,1106.8 2175.8,780 "/>
<polygon class="st23" points="2175.8,609.5 2032.8,694.8 2175.8,780 2319.9,694.8 "/>
<polyline class="st23" points="2176.8,1106.8 2327.7,1020.7 2470.1,939.3 2614.2,1023.1 "/>
<line class="st23" x1="2319.9" y1="694.8" x2="2319.9" y2="1023.1"/>
<polyline class="st23" points="2470.1,939.3 2470.1,780 2614.2,861.2 "/>
<polyline class="st23" points="2759.3,777 2614.2,694.8 2470.1,780 "/>
<line class="st23" x1="2323" y1="1191" x2="2323" y2="1358.4"/>
</svg>
