<?xml version="1.0" encoding="utf-8"?>
<!-- Generator: Adobe Illustrator 20.0.0, SVG Export Plug-In . SVG Version: 6.00 Build 0)  -->
<svg version="1.1" id="Layer_1" xmlns="http://www.w3.org/2000/svg" xmlns:xlink="http://www.w3.org/1999/xlink" x="0px" y="0px"
	 viewBox="0 0 917 773" style="enable-background:new 0 0 917 773;" xml:space="preserve">
<style type="text/css">
	.st0{fill:#FAEFE9;}
	.st1{fill:#FFFFFF;}
	.st2{fill:none;stroke:#000000;stroke-miterlimit:10;}
	.st3{fill:#F2F2F2;}
	.st4{opacity:0.7;fill:#50B89D;enable-background:new    ;}
	.st5{font-family:'ArialMT';}
	.st6{font-size:44.04px;}
	.st7{opacity:0.44;fill:#50B89D;enable-background:new    ;}
	.st8{fill:#AB8DE5;}
	.st9{fill:#73E5E2;}
	.st10{fill:#50B89D;}
	.st11{fill:#F98B67;}
	.st12{fill:#1F161E;}
	.st13{fill:#FBDC8E;}
	.st14{fill:none;stroke:#FFFFFF;stroke-width:0.4;stroke-linecap:round;stroke-linejoin:round;}
	.st15{fill:#B37361;}
	.st16{fill:#F8CDBA;}
	.st17{fill:#FA9E9F;}
	.st18{fill:none;stroke:#1F161E;stroke-linecap:round;stroke-miterlimit:10;}
	.st19{fill:#969696;}
</style>
<title>example-scene-1</title>
<g id="Background">
	<circle class="st0" cx="468" cy="386.5" r="386.5"/>
</g>
<rect x="445.5" y="218" class="st1" width="237" height="367"/>
<line class="st2" x1="398" y1="442" x2="641" y2="442"/>
<line class="st2" x1="398" y1="466" x2="641" y2="466"/>
<line class="st2" x1="398" y1="490" x2="641" y2="490"/>
<line class="st2" x1="398" y1="514" x2="641" y2="514"/>
<circle class="st3" cx="564" cy="325" r="62"/>
<rect x="641" y="348.5" class="st4" width="98" height="91"/>
<text transform="matrix(0.6 0 0 1 666.1504 408.4102)" class="st1 st5 st6">&lt; / &gt;</text>
<rect x="36" y="37.5" class="st2" width="529" height="348"/>
<line class="st2" x1="36" y1="56" x2="565" y2="56"/>
<rect x="74.5" y="87" class="st2" width="159" height="159"/>
<line class="st2" x1="264" y1="101" x2="507" y2="101"/>
<line class="st2" x1="264" y1="125" x2="507" y2="125"/>
<line class="st2" x1="264" y1="149" x2="507" y2="149"/>
<line class="st2" x1="264" y1="173" x2="507" y2="173"/>
<polygon class="st7" points="154,129 110.7,204 197.3,204 "/>
<circle class="st8" cx="47.5" cy="47" r="4.5"/>
<circle class="st9" cx="63" cy="47" r="4.5"/>
<circle class="st10" cx="78.5" cy="47" r="4.5"/>
<circle class="st1" cx="296.5" cy="284" r="4.5"/>
<circle class="st1" cx="312" cy="284" r="4.5"/>
<circle class="st1" cx="327.5" cy="284" r="4.5"/>
<circle class="st1" cx="716.5" cy="134" r="4.5"/>
<circle class="st1" cx="701" cy="134" r="4.5"/>
<circle class="st1" cx="685.5" cy="134" r="4.5"/>
<circle class="st11" cx="736" cy="42.5" r="4.5"/>
<circle class="st11" cx="745.5" cy="61" r="4.5"/>
<circle class="st11" cx="642" cy="243.5" r="7"/>
<circle class="st11" cx="683" cy="267.5" r="7"/>
<circle class="st11" cx="53" cy="275.5" r="7"/>
<path class="st12" d="M658.2,595.2v-1l-2.4-3l-5.5-6.7l-5.9-7.1c0,0-5.7-3.9-7.1-4.6c-5.3-2.5-10.6-4.3-16.8-4.3
	c-3.8,0-18.2,0.6-18.3,3c0,3.6,20.2,17.2,34.9,23.8C643.6,595.2,658.2,595.2,658.2,595.2z"/>
<path class="st13" d="M655.2,595.2c-20.5-15.8-62.4-101.9-51.6-133.8c22.9,11.6,47.9,51.8,59.8,85.7c0.6,2.2,1.1,4.4,1.5,6.7l4.8,22
	l1.2,19.3L655.2,595.2z"/>
<path class="st9" d="M669.2,595.2c-6.9-5.6-9.1-22.3-9.2-28.5c-0.1-11.6,1.7-20.1,11.6-32.9s7.3-33.9,20.4-48.2s21.9-18.2,37.5-18.2
	s20.6,25.3,20.5,31.7c-0.2,25.7-16.4,29.3-26.2,41.6c-7.2,8.9-7.7,16.2-9.9,20.3c-11.6,22.4-21.1,30.8-28.1,34.1"/>
<path class="st14" d="M673,593.4c0.2-43.8,46.4-109.7,56.3-119.5"/>
<path class="st14" d="M675.5,573.5c-5.1-5.6-9.8-21.4-9.1-25.5"/>
<path class="st14" d="M662.4,591.5c-7.2-12.8-41.6-75.4-54.4-121.5"/>
<path class="st15" d="M685.8,595.2h21.5l-18,67h-48.1l-17.7-67H685.8"/>
<path class="st14" d="M609.2,572.8c10.5,0.7,23.7,1.2,33,7.5"/>
<g id="Man">
	<path class="st12" d="M775.5,321c-2.5,12.1-20.9,161.8-14.9,197.5s104,110.7,108.3,112c5-3.7,12.4-15.7,12.4-15.7
		s-71.8-83.3-73.2-86.6S823.7,332,823.7,332L775.5,321z"/>
	<polygon class="st8" points="892.5,348.2 819.2,647.3 794.5,647.3 819.5,335.3 	"/>
	<path class="st13" d="M840.4,177.1c10.1,0,62.9,1.7,72.5,20.3s0.5,104.5-5.4,107.8c-3.2,1.8-4.1,0-5,3.7s-10,39.4-10,39.4
		c-5.8,0.2-89.7-12.5-117-27.3c0.2-4.1,1.5-14.8,1.5-15.6c-3.6,1.5-8,1.8-9.2,0c-10.6-16.1,5.2-100.1,16.6-117
		C789.2,181.1,824.2,177.1,840.4,177.1z"/>
	<path class="st12" d="M875.2,307.5c2.5,0,23.8,15,22,22.4c1.5-5.9,6.2-24.2,6.2-24.2C901.4,306,877,307.5,875.2,307.5z"/>
	<path class="st16" d="M853.5,186.9c0,3.3-25.7,3.3-25.7,0v-33h25.7V186.9z"/>
	<path class="st12" d="M838.7,161.7c2,0,14.8,5.6,14.8,8.8v-16.6C850.3,153.9,838.7,161.7,838.7,161.7z"/>
	<circle class="st16" cx="835.2" cy="139.1" r="25"/>
	<path class="st12" d="M826.8,102.5c-12.8,0-20.8,8.1-20.8,18.4c0,8.6,2.1,13.4,4.5,14.7c1.5-8.3,4.9-12.2,7.7-13.9
		c2.2,1.7,5.9,5.7,10.8,6.9c5,1.2,17.9,1,28.3,8.6c3.4-3.1,6.8-7.1,6.8-11.9s-2.1-10.7-14.5-14.2
		C841.5,108.9,840.4,102.5,826.8,102.5z"/>
	<ellipse class="st17" cx="811.8" cy="144.2" rx="4.4" ry="2.3"/>
	<ellipse class="st17" cx="839.4" cy="144.2" rx="4.4" ry="2.3"/>
	<path class="st18" d="M822.5,139.5c-0.8,1.2-5,6.1-0.6,8.1"/>
	<path class="st18" d="M830.8,153.3c1.3,0,3.3-1.6,4.4-3.1"/>
	<circle class="st16" cx="858.3" cy="141.9" r="5.8"/>
	<path class="st18" d="M875.8,226.3c-0.5,5.5-2.2,32.8-1.5,36.4c-8.4,2.9-85.2,39.4-98.5,43.4"/>
	<path class="st18" d="M786.5,217.6c-1.8,6.2-7.7,34.2-3.5,47.3"/>
	<path class="st18" d="M806.2,293.2c4,2.8,42.3,19.8,95.3,13.4"/>
	<path class="st16" d="M802.5,264.9c2.6,0.4-5.8-6.3-10.6-3.8s-11.2,13.8-9.8,16.4c0.7,1.7,2.6,2.6,4.3,2c0.2-0.1,0.4-0.2,0.7-0.3
		C788.4,278.3,798,264.2,802.5,264.9z"/>
	<path class="st12" d="M880.4,616.1c1.4,1,13.5,9.2,13.6,14.4s-11.3,22.3-13.6,22.8s-3.9-1.5-3.9-4.9s4.3-9.5,3.8-12.2
		s-6.2-7.6-9.1-7.7"/>
	<path class="st12" d="M816.8,647.3c0,2.4,1.4,17.3-1.4,18.7s-33.2,2.2-34.6,0.8s-2.2-4.3-1-5.1s13-3.2,14.6-4.3s3.8-7,3-10.1"/>
</g>
<g id="Woman">
	<rect x="26" y="536.3" class="st15" width="193.4" height="98.1"/>
	<path class="st12" d="M314.7,490.4c0.8,5,15.1,119.3,17.4,121.2s26.8,6.1,28.9,2.9c0.4-5,1-84.7,2.3-91.8"/>
	<path class="st10" d="M38.8,466.5c-9.9-4.9,10.7,91.7,65,91.7s145.6-82.7,160.4-82.7c32.6,0,109.9,64.1,116,64.1
		c4.6-4.6,13.9-12.8,13.9-16s-74-125-129.4-125C243.2,398.6,61.1,477.5,38.8,466.5z"/>
	<path class="st12" d="M69.3,468.2c10.8-2.5,24.3-8.8,36.3-15.3c-32.5,10.6-59.2,17.5-66.8,13.7c-5.2-2.6-1.9,23.3,10.4,48.2
		C46.9,509.9,43.8,474,69.3,468.2z"/>
	<path class="st9" d="M93.2,298.8c8.6,0.2,53.1-1.1,65.3,10.5c9.1,8.6,37.2,82.8,41.5,108.8C181.1,427.7,44.8,493,2.6,464.3
		C1.7,442,6,353.4,33.6,306.9C43.7,300.1,85,298.6,93.2,298.8z"/>
	<path class="st16" d="M110.6,277.6h-26v27.9c0,7,26,6.9,26,0V277.6z"/>
	<path class="st12" d="M84.6,294.5c0-3.1,8.6-10.9,13.9-10.6c0.1-3.5-12.1-8.4-12.1-8.4l-1.8,4.8L84.6,294.5z"/>
	<path class="st12" d="M137.8,277.6c0.6-2.7,0.9-5.5,0.9-8.2c0-20.6-16.1-37.3-36-37.3s-36,16.7-36,37.3c0,2.8,0.3,5.5,0.9,8.2
		H137.8z"/>
	<path class="st16" d="M128.3,252.4c-4.4-0.7-8.8-4.1-11.9-6.4c-17.5,12.8-28.7,13-29.9,13s-6.1,7.1-8.4,7.9l-0.2-0.1
		c2.7,14.8,16.9,24.7,31.7,22c14.8-2.7,24.7-16.9,22-31.7c-0.3-1.6-0.7-3.1-1.3-4.6C129.7,252.5,129,252.5,128.3,252.4z"/>
	<circle class="st12" cx="83.2" cy="226.1" r="10.6"/>
	<path class="st18" d="M87.9,258.4c-2.5,0.1-4.4,2.2-4.3,4.7c0.1,2.3,2,4.1,4.3,4.3"/>
	<path class="st18" d="M121.9,259c1.3,1.8,4.7,4.8,0,8.1"/>
	<path class="st18" d="M107.8,269.4c0,1.3,0.6,4.4,3.4,5.2"/>
	<ellipse class="st17" cx="99" cy="267.6" rx="4.1" ry="2.1"/>
	<ellipse class="st17" cx="129.7" cy="267.6" rx="4.1" ry="2.1"/>
	<path class="st16" d="M157.5,376.1l27.8-7.1c2.7,4.5,15.7,49.1,15.7,49.1l-42.9,18.1C158.7,427.7,160.4,389,157.5,376.1z"/>
	<path class="st18" d="M60.1,369.1c0,3.4-2.8,16.1-4.5,22.2"/>
	<path class="st18" d="M157.5,376.1c-0.7-5.3-4.6-35.1-11.3-50.8"/>
	<path class="st16" d="M157.5,376.1l27.8-7.1c2.7,4.5,15.7,49.1,15.7,49.1l-42.9,18.1C158.7,427.7,160.4,389,157.5,376.1z"/>
	<path class="st12" d="M381,537.3c0.6,1,8.9,11.2,11.8,11.3s20.7-11.9,19.9-14.5s-11.9-0.9-13.9-1.8s-6.2-5.2-6.9-7.1"/>
	<path class="st12" d="M337.2,612.6c-0.2,1.1-1.3,14.2,0.7,16.3s23.2,5.8,24.4,3.4s-8-8.9-8.7-10.9s-0.9-8,0-9.9"/>
	<polygon class="st19" points="304.1,420.9 209.9,420.9 232.3,361.5 326.5,361.5 	"/>
	<rect x="131.4" y="418.6" class="st19" width="94.2" height="2.2"/>
	<path class="st16" d="M55.6,391.2C53.8,398,45,427,48.6,432s93.2-6.3,117.2-13.8c6.1-2,10.6-7.2,13.4-7.9
		c7.2-1.2,14.2,3.2,16.2,10.2c-9.6,4.6-147.9,75.3-192.7,43.8c-8.5-6.1,6.4-80.1,7.1-83.8C17.2,381.4,55.6,391.2,55.6,391.2z"/>
	<path class="st18" d="M158.8,420c2.7-0.6,5.1-1.3,7-1.9c6.1-2,10.6-7.2,13.4-7.9c7.2-1.2,14.2,3.2,16.2,10.2"/>
</g>
</svg>
